/* XPM */
static char * bubble10_xpm[] = {
"10 10 15 1",
" 	c None",
".	c #1AAEFF",
"+	c #6CBFFF",
"@	c #B0DAFF",
"#	c #F3F9FE",
"$	c #E9F5FF",
"%	c #EFF7FF",
"&	c #C9E9FF",
"*	c #CCEAFF",
"=	c #D3ECFF",
"-	c #F7FCFF",
";	c #F4FBFF",
">	c #F5FBFF",
",	c #AEDCFF",
"'	c #ADDBFF",
"    ..    ",
"  +@      ",
"  #$      ",
"  %       ",
"          ",
"          ",
"          ",
" &      * ",
"  =-;>-=  ",
"    ,'    "};
