/* XPM */
static char * bubble_dies_xpm[] = {
"10 10 16 1",
" 	c None",
".	c #F2F8FF",
"+	c #FEFEFF",
"@	c #E4F0FF",
"#	c #F3F9FF",
"$	c #EDF5FF",
"%	c #FDFEFF",
"&	c #B9DCFF",
"*	c #EAF5FF",
"=	c #F9FCFF",
"-	c #E2EFFF",
";	c #C9E6FF",
">	c #CCE9FF",
",	c #CFEBFF",
"'	c #B6DFFF",
")	c #C2E4FF",
"          ",
"       .  ",
"  .  + @  ",
"  # $     ",
"    %+ &  ",
" * =-  ;  ",
"  >   ,   ",
"   ')' %  ",
"          ",
"          "};
