/* XPM */
static char * bubble6_xpm[] = {
"10 10 4 1",
" 	c None",
".	c #E9F3FE",
"+	c #C8E7FF",
"@	c #C8E6FF",
"          ",
"          ",
"          ",
"   .      ",
"          ",
"          ",
"          ",
"    +@    ",
"          ",
"          "};
